<?xml version="1.0" standalone="no"?><!DOCTYPE svg PUBLIC "-//W3C//DTD SVG 1.1//EN" "http://www.w3.org/Graphics/SVG/1.1/DTD/svg11.dtd"><svg t="1651130313284" class="icon" viewBox="0 0 1024 1024" version="1.1" xmlns="http://www.w3.org/2000/svg" p-id="683" width="25" height="25" xmlns:xlink="http://www.w3.org/1999/xlink"><defs><style type="text/css">@font-face { font-family: feedback-iconfont; src: url("//at.alicdn.com/t/font_1031158_u69w8yhxdu.woff2?t=1630033759944") format("woff2"), url("//at.alicdn.com/t/font_1031158_u69w8yhxdu.woff?t=1630033759944") format("woff"), url("//at.alicdn.com/t/font_1031158_u69w8yhxdu.ttf?t=1630033759944") format("truetype"); }
</style></defs><path d="M230.3576 896A102.88 102.88 0 0 0 127.8936 998.4v25.6h768v-25.6a102.88 102.88 0 0 0-102.464-102.4H230.3576zM769.6536 0c13.504 0 26.464 5.568 36.032 15.456 9.568 9.888 14.944 23.296 14.944 37.28v71.232h86.752c15.488-1.728 30.816 4.512 40.96 16.704 10.208 12.16 13.952 28.768 10.048 44.352v221.12c0 108.224-161.024 187.328-178.912 195.2l-24.16 12.96a697.6 697.6 0 0 1-196.32 152.64V896h-94.4v-131.84a793.664 793.664 0 0 1-196.32-152.64l-25.472-10.656C224.4376 590.72 63.8936 513.92 63.8936 405.664V181.792c0.256-31.84 25.12-57.6 55.904-57.824h89.44V52.736C209.2376 23.616 232.0856 0 260.2456 0zM200.3736 192H111.8936l2.24 209.952c0 40.064 50.4 80.544 93.76 110.048a116.544 116.544 0 0 1-7.52-44.032V192zM911.8936 192h-88.48v275.968c0.352 15.04-2.208 29.984-7.52 44.032 43.36-29.504 93.76-69.984 93.76-110.048L911.8936 192zM511.3176 160l-48.832 105.632L351.8936 282.912l78.816 80.96L410.7096 480l100.608-56.224L613.0776 480l-20-116.16L671.8936 282.976l-110.592-17.28L511.3176 160z" fill="#C0C0C0" opacity=".65" p-id="684"></path></svg>